<?xml version="1.0" encoding="UTF-8"?>
<!DOCTYPE svg PUBLIC "-//W3C//DTD SVG 1.1//EN" "http://www.w3.org/Graphics/SVG/1.1/DTD/svg11.dtd">
<svg version="1.1" xmlns="http://www.w3.org/2000/svg" xmlns:xlink="http://www.w3.org/1999/xlink" x="0" y="0" width="60" height="120" viewBox="0, 0, 60, 120">
  <g id="Ebene_1">
    <path d="M28.699,5.569 L28.886,93.132 C27.012,90.589 19.128,88.934 12.324,93.288 C5.52,97.642 1.435,104.923 3.792,109.226 C6.483,114.138 15.428,116.767 22.542,111.663 C27.687,107.973 30.161,103.23 30.949,101.819 L30.949,57.163 C49.841,69.633 59.13,72.03 49.511,98.351 C58.954,86.155 58.273,78.286 53.324,70.132 C54.063,64.647 54.101,60.444 53.605,57.069 C59.014,25.777 39.937,28.465 30.949,8.788 L30.949,5.726 L28.699,5.569 z M30.949,23.788 C49.924,34.027 51.669,44.062 52.167,51.788 C48.491,43.241 39.662,40.636 30.949,26.444 L30.949,23.788 z M30.949,39.163 C50.181,55.531 50.106,51.667 52.417,68.694 C47.167,60.765 38.238,52.307 30.949,39.163 z" fill="#000000" id="path2991"/>
  </g>
</svg>
